{
  "accessors": [
    {
      "bufferView": 2,
      "componentType": 5126,
      "count": 65532,
      "max": [
        0.92329299449920654,
        0.87953799962997437,
        1.5104670524597168
      ],
      "min": [
        -0.92312800884246826,
        -0.88975197076797485,
        -0.041214000433683395
      ],
      "type": "VEC3"
    },
    {
      "bufferView": 2,
      "byteOffset": 786384,
      "componentType": 5126,
      "count": 65532,
      "max": [
        0.99998795986175537,
        0.99992275238037109,
        0.99999570846557617
      ],
      "min": [
        -0.99999773502349854,
        -0.99998331069946289,
        -0.99999988079071045
      ],
      "type": "VEC3"
    },
    {
      "bufferView": 1,
      "componentType": 5126,
      "count": 65532,
      "max": [
        0.98325002193450928,
        0.98132497072219849
      ],
      "min": [
        0.018817000091075897,
        0.38273900747299194
      ],
      "type": "VEC2"
    },
    {
      "bufferView": 0,
      "componentType": 5125,
      "count": 375684,
      "max": [
        65531
      ],
      "min": [
        0
      ],
      "type": "SCALAR"
    },
    {
      "bufferView": 2,
      "byteOffset": 1572768,
      "componentType": 5126,
      "count": 8352,
      "max": [
        0.91836100816726685,
        0.87925398349761963,
        1.5056149959564209
      ],
      "min": [
        -0.90961498022079468,
        -0.88723301887512207,
        -0.04106299951672554
      ],
      "type": "VEC3"
    },
    {
      "bufferView": 2,
      "byteOffset": 1672992,
      "componentType": 5126,
      "count": 8352,
      "max": [
        0.99992358684539795,
        0.99933409690856934,
        0.99990487098693848
      ],
      "min": [
        -0.99912863969802856,
        -0.99997925758361816,
        -0.99997317790985107
      ],
      "type": "VEC3"
    },
    {
      "bufferView": 1,
      "byteOffset": 524256,
      "componentType": 5126,
      "count": 8352,
      "max": [
        0.97673702239990234,
        0.98124998807907104
      ],
      "min": [
        0.025050999596714973,
        0.39482799172401428
      ],
      "type": "VEC2"
    },
    {
      "bufferView": 0,
      "byteOffset": 1502736,
      "componentType": 5125,
      "count": 26016,
      "max": [
        8351
      ],
      "min": [
        0
      ],
      "type": "SCALAR"
    },
    {
      "bufferView": 2,
      "byteOffset": 1773216,
      "componentType": 5126,
      "count": 4,
      "max": [
        3.6840701103210449,
        4.7802028656005859,
        0
      ],
      "min": [
        -3.6840701103210449,
        -2.5879380702972412,
        0
      ],
      "type": "VEC3"
    },
    {
      "bufferView": 2,
      "byteOffset": 1773264,
      "componentType": 5126,
      "count": 4,
      "max": [
        0,
        -0,
        1
      ],
      "min": [
        0,
        -0,
        1
      ],
      "type": "VEC3"
    },
    {
      "bufferView": 1,
      "byteOffset": 591072,
      "componentType": 5126,
      "count": 4,
      "max": [
        1,
        1
      ],
      "min": [
        0,
        0
      ],
      "type": "VEC2"
    },
    {
      "bufferView": 0,
      "byteOffset": 1606800,
      "componentType": 5125,
      "count": 6,
      "max": [
        3
      ],
      "min": [
        0
      ],
      "type": "SCALAR"
    }
  ],
  "asset": {
    "extras": {
      "author": "moxstudios (https://sketchfab.com/moxstudios)",
      "license": "CC-BY-4.0 (http://creativecommons.org/licenses/by/4.0/)",
      "source": "https://sketchfab.com/3d-models/budita-free-f7de0f4e28ec47158e31d65de961675f",
      "title": "Budita Free"
    },
    "generator": "Sketchfab-7.84.0",
    "version": "2.0"
  },
  "bufferViews": [
    {
      "buffer": 0,
      "byteLength": 1606824,
      "byteOffset": 0,
      "name": "floatBufferViews",
      "target": 34963
    },
    {
      "buffer": 0,
      "byteLength": 591104,
      "byteOffset": 1606824,
      "byteStride": 8,
      "name": "floatBufferViews",
      "target": 34962
    },
    {
      "buffer": 0,
      "byteLength": 1773312,
      "byteOffset": 2197928,
      "byteStride": 12,
      "name": "floatBufferViews",
      "target": 34962
    }
  ],
  "buffers": [
    {
      "byteLength": 3971240,
      "uri": "scene.bin"
    }
  ],
  "images": [
    {
      "uri": "textures/Default_OBJ.003_baseColor.png"
    }
  ],
  "materials": [
    {
      "doubleSided": true,
      "name": "Default_OBJ.003",
      "pbrMetallicRoughness": {
        "baseColorFactor": [
          1,
          1,
          1,
          1
        ],
        "baseColorTexture": {
          "index": 0,
          "texCoord": 0
        },
        "metallicFactor": 0,
        "roughnessFactor": 0.5489518267553557
      }
    },
    {
      "doubleSided": false,
      "name": "Material",
      "pbrMetallicRoughness": {
        "baseColorFactor": [
          0.35398327329623624,
          0,
          0,
          1
        ],
        "metallicFactor": 0,
        "roughnessFactor": 0.37914050600063876
      }
    }
  ],
  "meshes": [
    {
      "primitives": [
        {
          "attributes": {
            "NORMAL": 1,
            "POSITION": 0,
            "TEXCOORD_0": 2
          },
          "indices": 3,
          "material": 0,
          "mode": 4
        }
      ]
    },
    {
      "primitives": [
        {
          "attributes": {
            "NORMAL": 5,
            "POSITION": 4,
            "TEXCOORD_0": 6
          },
          "indices": 7,
          "material": 0,
          "mode": 4
        }
      ]
    },
    {
      "primitives": [
        {
          "attributes": {
            "NORMAL": 9,
            "POSITION": 8,
            "TEXCOORD_0": 10
          },
          "indices": 11,
          "material": 1,
          "mode": 4
        }
      ]
    }
  ],
  "nodes": [
    {
      "children": [
        1
      ],
      "name": "RootNode (gltf orientation matrix)",
      "rotation": [
        -0.70710678118654746,
        -0,
        -0,
        0.70710678118654757
      ]
    },
    {
      "children": [
        2
      ],
      "name": "RootNode (model correction matrix)"
    },
    {
      "children": [
        3,
        4,
        5
      ],
      "name": "budita.obj.cleaner.materialmerger.gles"
    },
    {
      "mesh": 0,
      "name": ""
    },
    {
      "mesh": 1,
      "name": ""
    },
    {
      "mesh": 2,
      "name": ""
    }
  ],
  "samplers": [
    {
      "magFilter": 9729,
      "minFilter": 9987,
      "wrapS": 10497,
      "wrapT": 10497
    }
  ],
  "scene": 0,
  "scenes": [
    {
      "name": "OSG_Scene",
      "nodes": [
        0
      ]
    }
  ],
  "textures": [
    {
      "sampler": 0,
      "source": 0
    }
  ]
}

